<?xml version="1.0" encoding="utf-8"?>
<!-- Generator: Adobe Illustrator 24.0.0, SVG Export Plug-In . SVG Version: 6.00 Build 0)  -->
<svg version="1.1" id="Layer_1" focusable="false" xmlns="http://www.w3.org/2000/svg" xmlns:xlink="http://www.w3.org/1999/xlink"
	 x="0px" y="0px" viewBox="0 0 448 512" style="enable-background:new 0 0 448 512;" xml:space="preserve">
<style type="text/css">
	.st0{fill:#FFFFFF;}
</style>
<path class="st0" d="M16,224h416c8.8,0,16-7.2,16-16v-32c0-8.8-7.2-16-16-16H16c-8.8,0-16,7.2-16,16v32C0,216.8,7.2,224,16,224z
	 M432,416H16c-8.8,0-16,7.2-16,16v32c0,8.8,7.2,16,16,16h416c8.8,0,16-7.2,16-16v-32C448,423.2,440.8,416,432,416z M435.2,32H172.8
	c-7.1,0-12.8,5.7-12.8,12.8c0,0,0,0,0,0v38.3c0,7.1,5.7,12.8,12.8,12.8c0,0,0,0,0,0h262.3c7.1,0,12.8-5.7,12.8-12.8c0,0,0,0,0,0
	V44.8C448,37.7,442.3,32,435.2,32C435.2,32,435.2,32,435.2,32z M435.2,288H172.8c-7.1,0-12.8,5.7-12.8,12.8c0,0,0,0,0,0v38.3
	c0,7.1,5.7,12.8,12.8,12.8c0,0,0,0,0,0h262.3c7.1,0,12.8-5.7,12.8-12.8c0,0,0,0,0,0v-38.3C448,293.7,442.3,288,435.2,288
	C435.2,288,435.2,288,435.2,288z"/>
</svg>
