<?xml version="1.0" encoding="utf-8"?>
<!-- Generator: Adobe Illustrator 24.0.2, SVG Export Plug-In . SVG Version: 6.00 Build 0)  -->
<svg version="1.1" id="레이어_1" xmlns="http://www.w3.org/2000/svg" xmlns:xlink="http://www.w3.org/1999/xlink" x="0px"
	 y="0px" viewBox="0 0 995.3 244.5" style="enable-background:new 0 0 995.3 244.5;" xml:space="preserve">
<style type="text/css">
	.st0{fill-rule:evenodd;clip-rule:evenodd;fill:#2243C0;}
	.st1{fill-rule:evenodd;clip-rule:evenodd;fill:#2322A9;}
	.st2{fill-rule:evenodd;clip-rule:evenodd;fill:url(#SVGID_1_);}
	.st3{fill:#FFFFFF;}
	.st4{fill-rule:evenodd;clip-rule:evenodd;fill:#C12906;}
	.st5{fill-rule:evenodd;clip-rule:evenodd;fill:#9B0D0A;}
	.st6{fill-rule:evenodd;clip-rule:evenodd;fill:url(#SVGID_2_);}
	.st7{fill-rule:evenodd;clip-rule:evenodd;fill:#0692C1;}
	.st8{fill-rule:evenodd;clip-rule:evenodd;fill:#0A729B;}
	.st9{fill-rule:evenodd;clip-rule:evenodd;fill:url(#SVGID_3_);}
	.st10{fill-rule:evenodd;clip-rule:evenodd;fill:#5C2B21;}
	.st11{fill-rule:evenodd;clip-rule:evenodd;fill:#D87825;}
	.st12{fill-rule:evenodd;clip-rule:evenodd;fill:url(#SVGID_4_);}
	.st13{fill-rule:evenodd;clip-rule:evenodd;fill:#00C783;}
	.st14{fill-rule:evenodd;clip-rule:evenodd;fill:#00AF73;}
	.st15{fill-rule:evenodd;clip-rule:evenodd;fill:#FFFFFF;}
	.st16{fill-rule:evenodd;clip-rule:evenodd;fill:url(#SVGID_5_);}
</style>
<g transform="matrix(.47195 0 0 .47195 152.4 -69.791)">
	<path class="st0" d="M-313.8,492.2V192.7c0-20.1,16.3-36.3,36.3-36.3h199.8L72.1,306.1v216.5h-385.8L-313.8,492.2L-313.8,492.2z"/>
	<g transform="matrix(1 0 0 .87323 -2.0464e-12 160.45)">
		<path class="st1" d="M72,414.7v116c0,18.6-16.3,33.7-36.3,33.7h-313.2c-20.1,0-36.3-15.1-36.3-33.7v-116L72,414.7L72,414.7z"/>
	</g>
	<g transform="translate(3.2597 -1.5916e-12)">
		
			<linearGradient id="SVGID_1_" gradientUnits="userSpaceOnUse" x1="297.7182" y1="1547.4469" x2="298.7182" y2="1547.4469" gradientTransform="matrix(63.0654 62.0459 62.0459 -63.0654 -114822.625 79386.6484)">
			<stop  offset="0" style="stop-color:#212121;stop-opacity:0.6157"/>
			<stop  offset="1" style="stop-color:#4D4D4D;stop-opacity:0"/>
		</linearGradient>
		<path class="st2" d="M-81,156.3L-81,156.3L68.8,306.1v125.2c-1.1,0.5-1.9,0.5-2.7-0.2C59,424-74.3,299.9-74.3,289.8
			C-74.3,245.7-80.9,157.4-81,156.3L-81,156.3z"/>
	</g>
	<g transform="translate(3.2597 -1.5348e-12)">
		<path class="st1" d="M-81,156.3L-81,156.3L68.8,306.1h-112c-10,0-19.6-4-26.7-11.1C-77,287.9-81,278.3-81,268.3L-81,156.3
			L-81,156.3z"/>
	</g>
	<g transform="translate(0 44.289)">
		<path class="st3" d="M-197,578.3h-19v-74.3h21.2c8.3,0,14.1,0.4,17.5,1.2c3.4,0.8,6.2,2.2,8.5,4.2c2.7,2.3,4.8,5.1,6.3,8.5
			c1.4,3.4,2.2,7.2,2.2,11.3c0,4.4-0.7,8.3-2.1,11.7c-1.4,3.4-3.5,6.1-6.3,8.3c-2.1,1.6-4.6,2.8-7.4,3.5c-2.8,0.7-7.4,1.1-13.7,1.1
			h-7.1L-197,578.3L-197,578.3z M-197,537.4h3.9c4.9,0,8.3-0.7,10.2-2c1.9-1.3,2.9-3.6,2.9-6.8c0-3.1-0.9-5.3-2.8-6.7
			c-1.9-1.3-5.2-2-10.1-2h-4.1V537.4z"/>
		<path class="st3" d="M-146.7,554.2c3,3.4,6,6,8.9,7.7c2.9,1.7,5.8,2.5,8.8,2.5c2.7,0,4.9-0.7,6.7-2.2c1.7-1.5,2.6-3.3,2.6-5.5
			c0-2.5-0.8-4.4-2.3-5.7c-1.5-1.3-4.9-2.7-10.2-4.1c-7.3-2-12.4-4.5-15.4-7.7c-3-3.1-4.5-7.5-4.5-13c0-7.1,2.4-12.9,7.1-17.4
			c4.8-4.5,10.9-6.7,18.5-6.7c4.1,0,8,0.6,11.7,1.7c3.7,1.1,7.2,2.8,10.4,5l-6.4,14.6c-2.3-2-4.7-3.4-7.1-4.4
			c-2.4-1-4.8-1.5-7.2-1.5c-2.4,0-4.4,0.6-5.9,1.8c-1.5,1.2-2.3,2.7-2.3,4.5c0,1.9,0.7,3.4,2,4.5c1.3,1.1,3.9,2.2,7.7,3.2l0.9,0.3
			c8.3,2.2,13.7,4.7,16.3,7.4c1.8,1.8,3.1,4,4,6.6c0.9,2.6,1.4,5.4,1.4,8.5c0,7.9-2.6,14.2-7.8,19c-5.2,4.8-12.1,7.2-20.7,7.2
			c-5.2,0-9.9-0.9-14.1-2.6c-4.2-1.8-8.3-4.5-12.3-8.3L-146.7,554.2L-146.7,554.2z"/>
		<path class="st3" d="M-89.6,578.3v-74.3h15.5c11.5,0,19.7,0.5,24.5,1.6s9,2.9,12.6,5.4c4.7,3.3,8.3,7.5,10.7,12.6
			c2.4,5.1,3.7,11,3.7,17.5s-1.2,12.4-3.7,17.5c-2.4,5.1-6,9.3-10.7,12.6c-3.6,2.5-7.7,4.3-12.3,5.4c-4.6,1.1-11.8,1.6-21.4,1.6
			L-89.6,578.3L-89.6,578.3z M-69.6,561.6h3.4c8,0,13.8-1.6,17.4-4.9c3.7-3.3,5.5-8.5,5.5-15.6s-1.8-12.3-5.5-15.6
			c-3.7-3.3-9.5-5-17.4-5h-3.4V561.6z"/>
	</g>
	<g transform="matrix(1.1104 0 0 1.1104 162.22 510.74)">
		<path class="st3" d="M-314-31.9h-33.3v-130.5h37.2c14.6,0,24.8,0.7,30.7,2.1c5.9,1.4,10.9,3.9,15,7.3c4.8,4,8.5,9,11,14.9
			s3.8,12.6,3.8,19.9c0,7.8-1.2,14.6-3.7,20.5c-2.5,5.9-6.2,10.8-11.1,14.6c-3.7,2.9-8,4.9-13,6.1c-5,1.2-13,1.9-24,1.9H-314V-31.9
			L-314-31.9z M-314-103.6h6.8c8.6,0,14.5-1.2,17.9-3.5c3.4-2.3,5.1-6.3,5.1-12c0-5.5-1.7-9.4-5-11.7c-3.3-2.3-9.2-3.5-17.6-3.5
			h-7.1C-314-134.3-314-103.6-314-103.6z"/>
		<path class="st3" d="M-242.3-39.4l6.6-24.2c4.6,4,9.7,7.1,15.3,9.3c5.6,2.2,11.2,3.3,16.8,3.3c4,0,7-0.6,9.1-1.9
			c2.1-1.3,3.1-3.1,3.1-5.6c0-4-4.2-7-12.6-8.9c-2.7-0.7-4.9-1.2-6.6-1.7c-9.5-2.6-16.4-6-20.7-10.3c-4.3-4.2-6.5-9.8-6.5-16.5
			c0-8.7,3.3-15.7,9.8-20.9c6.6-5.2,15.5-7.8,26.7-7.8c5.8,0,11.6,0.7,17.6,2c6,1.3,12.1,3.4,18.3,6.2l-6.6,21.8
			c-4.2-2.9-8.5-5-12.8-6.5c-4.3-1.5-8.7-2.2-13-2.2c-3.6,0-6.4,0.6-8.2,1.7c-1.8,1.1-2.8,2.8-2.8,4.9c0,3.2,4.2,5.9,12.5,8.1
			c1.9,0.5,3.3,0.9,4.3,1.2c11,3.1,18.6,6.8,23,11.1c4.3,4.2,6.5,10,6.5,17.2c0,9.2-3.5,16.7-10.6,22.3s-16.4,8.5-28.1,8.5
			c-7.9,0-15.2-0.9-22-2.7C-230-32.9-236.3-35.7-242.3-39.4L-242.3-39.4z"/>
	</g>
</g>
<g transform="matrix(.47195 0 0 .47195 1410.5 -69.791)">
	<path class="st4" d="M-1700,494.3V194.8c0-20.1,16.3-36.3,36.3-36.3h199.8l149.7,149.7v216.5H-1700L-1700,494.3L-1700,494.3z"/>
	<g transform="matrix(1 0 0 .87323 -2.0464e-12 160.45)">
		<path class="st5" d="M-1314.1,417.1v116c0,18.6-16.3,33.7-36.3,33.7h-313.2c-20.1,0-36.3-15.1-36.3-33.7v-116L-1314.1,417.1
			L-1314.1,417.1z"/>
	</g>
	<g transform="translate(3.2597 -1.5916e-12)">
		
			<linearGradient id="SVGID_2_" gradientUnits="userSpaceOnUse" x1="-2368.0134" y1="1547.4298" x2="-2367.0134" y2="1547.4298" gradientTransform="matrix(63.0654 62.0459 62.0459 -63.0654 51907.5703 244785.5313)">
			<stop  offset="0" style="stop-color:#212121;stop-opacity:0.6157"/>
			<stop  offset="1" style="stop-color:#4D4D4D;stop-opacity:0"/>
		</linearGradient>
		<path class="st6" d="M-1467.2,158.5L-1467.2,158.5l149.8,149.7v125.2c-1.1,0.5-1.9,0.5-2.7-0.2c-7.1-7.1-140.4-131.2-140.4-141.2
			C-1460.4,247.9-1467.1,159.5-1467.2,158.5L-1467.2,158.5z"/>
	</g>
	<g transform="translate(3.2597 -1.5348e-12)">
		<path class="st5" d="M-1467.2,158.5L-1467.2,158.5l149.8,149.7h-112c-10,0-19.6-4-26.7-11.1c-7.1-7.1-11.1-16.7-11.1-26.7V158.5
			L-1467.2,158.5z"/>
	</g>
	<g transform="translate(0 44.289)">
		<path class="st3" d="M-1645.4,580.4V506h20.3v28.9h27V506h20.3v74.3h-20.3v-30.3h-27v30.3H-1645.4z"/>
		<path class="st3" d="M-1551.3,580.4v-56.8h-16.7V506h53.6v17.6h-16.7v56.8H-1551.3L-1551.3,580.4z"/>
		<path class="st3" d="M-1419.2,580.4h-18.9l-4.4-32.1c-0.3-2.3-0.6-4.8-0.8-7.6c-0.3-2.8-0.5-5.8-0.7-9.1
			c-0.5,3.1-1.4,7.1-2.8,11.8c-0.3,1-0.5,1.7-0.7,2.2l-10.1,34.8h-13.5l-10.1-34.8c-0.1-0.5-0.3-1.2-0.6-2.2
			c-1.4-4.7-2.4-8.6-2.8-11.7c-0.2,2.8-0.4,5.6-0.7,8.4c-0.3,2.8-0.6,5.5-1,8.3l-4.4,32.1h-18.8l11.5-74.3h20.1l11.2,38.3
			c0.1,0.3,0.2,0.7,0.4,1.3c1.1,3.4,1.7,6.3,2,8.8c0.1-1.3,0.4-2.8,0.8-4.4c0.4-1.6,0.9-3.5,1.5-5.8l11.3-38.2h20.1L-1419.2,580.4
			L-1419.2,580.4z"/>
		<path class="st3" d="M-1408.3,580.4V506h20.3v57h25.2v17.4L-1408.3,580.4L-1408.3,580.4z"/>
	</g>
	<g transform="matrix(.75567 0 0 .75567 -643.58 557.84)">
		<path class="st3" d="M-1208-249.6v22.5l-76.1,31.3l76.1,31v22.6l-105-43.3v-20.8C-1313-206.2-1208-249.6-1208-249.6z"/>
		<path class="st3" d="M-1184.5-124.5l63.9-150.4h19.7l-63.7,150.4H-1184.5z"/>
		<path class="st3" d="M-1077.3-249.6l105,43.4v20.8l-105,43.3v-22.6l76.1-31l-76.1-31.3C-1077.3-227.1-1077.3-249.6-1077.3-249.6z"
			/>
	</g>
</g>
<g transform="matrix(.47195 0 0 .47195 1819.9 -69.791)">
	<path class="st7" d="M-2151.1,494.3V194.8c0-20.1,16.3-36.3,36.3-36.3h199.8l149.7,149.7v216.5h-385.8L-2151.1,494.3L-2151.1,494.3
		z"/>
	<g transform="matrix(1 0 0 .87323 -2.0464e-12 160.45)">
		<path class="st8" d="M-1765.2,417.1v116c0,18.6-16.3,33.7-36.3,33.7h-313.2c-20.1,0-36.3-15.1-36.3-33.7v-116L-1765.2,417.1
			L-1765.2,417.1z"/>
	</g>
	<g transform="translate(3.2597 -1.5916e-12)">
		
			<linearGradient id="SVGID_3_" gradientUnits="userSpaceOnUse" x1="-3235.4783" y1="1547.4298" x2="-3234.4783" y2="1547.4298" gradientTransform="matrix(63.0654 62.0459 62.0459 -63.0654 106163.4688 298608.2188)">
			<stop  offset="0" style="stop-color:#212121;stop-opacity:0.6157"/>
			<stop  offset="1" style="stop-color:#4D4D4D;stop-opacity:0"/>
		</linearGradient>
		<path class="st9" d="M-1918.3,158.5L-1918.3,158.5l149.8,149.7v125.2c-1.1,0.5-1.9,0.5-2.7-0.2c-7.1-7.1-140.4-131.2-140.4-141.2
			C-1911.5,247.9-1918.2,159.5-1918.3,158.5L-1918.3,158.5z"/>
	</g>
	<g transform="translate(3.2597 -1.5348e-12)">
		<path class="st8" d="M-1918.3,158.5L-1918.3,158.5l149.8,149.7h-112c-10,0-19.6-4-26.7-11.1c-7.1-7.1-11.1-16.7-11.1-26.7V158.5
			L-1918.3,158.5z"/>
	</g>
	<g transform="translate(0 44.289)">
		<path class="st3" d="M-1989.4,508.9v22.1c-2.8-3.1-5.5-5.3-8.3-6.8c-2.8-1.4-5.7-2.2-8.9-2.2c-5.8,0-10.5,2-14.1,6
			c-3.6,4-5.4,9.2-5.4,15.6c0,6,1.8,10.9,5.5,14.8c3.7,3.9,8.4,5.9,14,5.9c3.1,0,6.1-0.7,8.9-2.2c2.8-1.4,5.5-3.7,8.3-6.8v22.2
			c-3.2,1.6-6.4,2.7-9.6,3.5c-3.2,0.8-6.4,1.2-9.6,1.2c-4.1,0-7.8-0.5-11.2-1.4s-6.6-2.4-9.5-4.4c-5.6-3.7-9.8-8.4-12.7-14.1
			c-2.9-5.7-4.4-12-4.4-19.1c0-5.7,0.9-10.9,2.8-15.5c1.8-4.7,4.6-8.9,8.4-12.7c3.5-3.6,7.5-6.3,11.9-8.1c4.4-1.8,9.3-2.7,14.8-2.7
			c3.2,0,6.5,0.4,9.6,1.2C-1995.8,506.2-1992.6,507.4-1989.4,508.9L-1989.4,508.9z"/>
		<path class="st3" d="M-1974.7,556.3c3,3.4,6,6,8.9,7.7c2.9,1.7,5.8,2.5,8.8,2.5c2.7,0,4.9-0.7,6.7-2.2c1.7-1.5,2.6-3.3,2.6-5.5
			c0-2.5-0.8-4.4-2.3-5.7c-1.5-1.3-4.9-2.7-10.2-4.1c-7.3-2-12.4-4.5-15.4-7.7c-3-3.1-4.5-7.5-4.5-13c0-7.1,2.4-12.9,7.1-17.4
			c4.8-4.5,10.9-6.7,18.5-6.7c4.1,0,8,0.6,11.7,1.7c3.7,1.1,7.2,2.8,10.4,5l-6.3,14.6c-2.3-2-4.7-3.4-7.1-4.4
			c-2.4-1-4.8-1.5-7.2-1.5c-2.4,0-4.4,0.6-5.9,1.8c-1.5,1.2-2.3,2.7-2.3,4.5c0,1.9,0.7,3.4,2,4.5c1.3,1.1,3.9,2.2,7.7,3.2l0.9,0.3
			c8.3,2.2,13.7,4.7,16.3,7.4c1.8,1.8,3.1,4,4,6.6c0.9,2.6,1.4,5.4,1.4,8.5c0,7.9-2.6,14.2-7.8,19c-5.2,4.8-12.1,7.2-20.7,7.2
			c-5.2,0-9.9-0.9-14.1-2.6c-4.2-1.8-8.3-4.5-12.3-8.3L-1974.7,556.3L-1974.7,556.3z"/>
		<path class="st3" d="M-1914.3,556.3c3,3.4,6,6,8.9,7.7c2.9,1.7,5.9,2.5,8.8,2.5c2.7,0,4.9-0.7,6.7-2.2c1.7-1.5,2.6-3.3,2.6-5.5
			c0-2.5-0.8-4.4-2.3-5.7c-1.5-1.3-4.9-2.7-10.2-4.1c-7.3-2-12.4-4.5-15.4-7.7c-3-3.1-4.5-7.5-4.5-13c0-7.1,2.4-12.9,7.1-17.4
			c4.8-4.5,10.9-6.7,18.5-6.7c4.1,0,8,0.6,11.7,1.7c3.7,1.1,7.2,2.8,10.4,5l-6.4,14.6c-2.3-2-4.7-3.4-7.1-4.4
			c-2.4-1-4.8-1.5-7.2-1.5c-2.4,0-4.4,0.6-5.9,1.8c-1.5,1.2-2.3,2.7-2.3,4.5c0,1.9,0.7,3.4,2,4.5c1.3,1.1,3.9,2.2,7.7,3.2l0.9,0.3
			c8.3,2.2,13.7,4.7,16.3,7.4c1.8,1.8,3.1,4,4,6.6c0.9,2.6,1.4,5.4,1.4,8.5c0,7.9-2.6,14.2-7.8,19c-5.2,4.8-12.1,7.2-20.7,7.2
			c-5.2,0-9.9-0.9-14.1-2.6c-4.2-1.8-8.3-4.5-12.3-8.3L-1914.3,556.3L-1914.3,556.3z"/>
	</g>
	<g transform="matrix(.9546 0 0 .9546 -1330 511.72)">
		<path class="st3" d="M-701-194v21.6c-0.4,0-1,0-1.9-0.1c-0.8-0.1-1.4-0.1-1.8-0.1c-5.8,0-9.7,1.1-11.8,3.2c-2,2.1-3,6.5-3,13v21.4
			c0,8.3-1.4,14.3-4.1,17.8c-2.7,3.6-7.7,6.1-14.8,7.6c7.2,1.4,12.1,3.9,14.8,7.4c2.7,3.5,4.1,9.4,4.1,17.8v21.5
			c0,6.5,1,10.8,3,12.9c2,2.1,5.9,3.1,11.6,3.1c0.4,0,1.1,0,1.9-0.1c0.9-0.1,1.5-0.1,1.9-0.1v21.6c-0.9,0-2.1,0-3.7,0.1
			c-1.6,0.1-2.8,0.1-3.6,0.1c-6.4,0-11.8-0.4-16-1.1c-4.3-0.7-7.8-1.8-10.7-3.3c-3.5-1.9-6-4.5-7.4-7.9c-1.4-3.4-2.1-9.1-2.1-17.1
			v-22.8c0-7.9-1.5-13.5-4.4-16.7c-2.9-3.2-7.9-4.8-15-4.8c-0.2,0-0.7,0-1.5,0.1c-0.8,0.1-1.3,0.1-1.7,0.1v-21.6
			c0.4,0,0.9,0,1.6,0.1c0.7,0.1,1.2,0.1,1.6,0.1c7,0,12-1.6,15-4.9c3-3.3,4.5-8.9,4.5-16.8v-22.6c0-8.1,0.7-13.8,2.1-17.2
			c1.4-3.4,3.9-6.1,7.3-8c2.9-1.5,6.4-2.6,10.8-3.3c4.3-0.7,9.7-1.1,16.1-1.1c0.7,0,1.9,0,3.4,0.1S-701.9-194-701-194z"/>
		<path class="st3" d="M-667.7-133.6c0-5.1,1.7-9.3,5.2-12.7c3.5-3.4,7.7-5.1,12.8-5.1c5.1,0,9.4,1.7,12.8,5.1
			c3.4,3.4,5.1,7.6,5.1,12.7s-1.7,9.4-5.2,12.9c-3.4,3.5-7.7,5.2-12.7,5.2c-5,0-9.2-1.8-12.7-5.3
			C-665.9-124.2-667.7-128.5-667.7-133.6L-667.7-133.6z M-665.7-91.9h33.2L-660-36h-24.7L-665.7-91.9z"/>
		<path class="st3" d="M-615-194c0.9,0,2.1,0,3.7-0.1c1.6-0.1,2.7-0.1,3.4-0.1c6.4,0,11.8,0.4,16,1.1c4.3,0.7,7.9,1.8,10.8,3.3
			c3.4,1.9,5.9,4.6,7.3,8c1.5,3.4,2.2,9.2,2.2,17.2v22.6c0,7.9,1.5,13.6,4.4,16.8c2.9,3.3,7.9,4.9,15,4.9c0.4,0,0.9,0,1.6-0.1
			c0.7-0.1,1.3-0.1,1.6-0.1v21.6c-0.4,0-0.9,0-1.6-0.1c-0.7-0.1-1.3-0.1-1.6-0.1c-7.1,0-12.1,1.6-15,4.9c-2.9,3.3-4.4,8.8-4.4,16.6
			v22.8c0,8.1-0.7,13.9-2.2,17.3c-1.5,3.4-3.9,6-7.3,7.9c-2.7,1.4-6,2.5-10.1,3.2c-4.1,0.7-9.3,1-15.8,1c-0.8,0-2.1,0-3.9-0.1
			c-1.8-0.1-3.1-0.1-4.1-0.1v-21.6c0.5,0,1.2,0,2,0.1c0.8,0.1,1.4,0.1,1.8,0.1c5.8,0,9.6-1,11.6-3.1c2-2,3-6.4,3-12.9v-21.5
			c0-8.3,1.4-14.2,4.1-17.8c2.7-3.5,7.6-6,14.7-7.4c-7.1-1.5-12-4-14.8-7.5c-2.7-3.5-4.1-9.5-4.1-17.9v-21.4c0-6.6-1-10.9-3-13
			c-2-2.1-5.8-3.2-11.3-3.2c-0.4,0-1.1,0-2,0.1c-0.9,0.1-1.7,0.1-2.2,0.1L-615-194L-615-194z"/>
	</g>
</g>
<g>
	<path class="st10" d="M205.6,162.6V21.2c0-9.5,7.7-17.1,17.1-17.1H317l70.7,70.7v102.2H205.6L205.6,162.6L205.6,162.6z"/>
	<g transform="matrix(1 0 0 .87323 -2.0464e-12 160.45)">
		<path class="st11" d="M387.7,18.9v54.7c0,8.8-7.7,15.9-17.1,15.9H222.7c-9.5,0-17.1-7.1-17.1-15.9V18.9L387.7,18.9L387.7,18.9z"/>
	</g>
	<g transform="translate(3.2597 -1.5916e-12)">
		
			<linearGradient id="SVGID_4_" gradientUnits="userSpaceOnUse" x1="289.1602" y1="662.5864" x2="290.1602" y2="662.5864" gradientTransform="matrix(63.0654 62.0459 62.0459 -63.0654 -59010.918 23900.084)">
			<stop  offset="0" style="stop-color:#212121;stop-opacity:0.6157"/>
			<stop  offset="1" style="stop-color:#4D4D4D;stop-opacity:0"/>
		</linearGradient>
		<path class="st12" d="M313.8,2.1L313.8,2.1l70.7,70.7v59.1c-0.5,0.3-0.9,0.2-1.3-0.1c-3.3-3.3-66.3-61.9-66.3-66.7
			C316.9,44.3,313.8,2.6,313.8,2.1L313.8,2.1z"/>
	</g>
	<g transform="translate(3.2597 -1.5348e-12)">
		<path class="st11" d="M313.8,2.1L313.8,2.1l70.7,70.7h-52.9c-4.7,0-9.3-1.9-12.6-5.2c-3.3-3.3-5.2-7.9-5.2-12.6L313.8,2.1
			L313.8,2.1z"/>
	</g>
	<g transform="matrix(1.2532 0 0 1.2532 685.92 -175.52)">
		<path class="st3" d="M-329.6,202.7h16.7v40c0,4.3-0.3,7.7-0.8,10c-0.6,2.3-1.5,4.4-2.8,6.2c-1.7,2.3-3.8,4.1-6.3,5.3
			c-2.5,1.2-5.3,1.8-8.4,1.8c-3.9,0-7.3-0.8-10.3-2.5c-3-1.7-5.6-4.1-7.8-7.4l10.3-9.3c0.3,1.8,0.8,3.2,1.8,4.2
			c0.9,1,2.1,1.5,3.5,1.5c1.6,0,2.7-0.9,3.3-2.7c0.6-1.8,0.9-6.2,0.9-13.3V202.7L-329.6,202.7z"/>
		<path class="st3" d="M-305.5,260.8l3.1-11.4c2.2,1.9,4.6,3.4,7.2,4.4c2.6,1,5.3,1.5,7.9,1.5c1.9,0,3.3-0.3,4.3-0.9
			c1-0.6,1.5-1.5,1.5-2.6c0-1.9-2-3.3-5.9-4.2c-1.3-0.3-2.3-0.6-3.1-0.8c-4.5-1.2-7.7-2.9-9.8-4.9c-2-2-3-4.6-3-7.8
			c0-4.1,1.5-7.4,4.6-9.9c3.1-2.5,7.3-3.7,12.6-3.7c2.7,0,5.5,0.3,8.3,0.9c2.8,0.6,5.7,1.6,8.6,2.9l-3.1,10.3c-2-1.3-4-2.4-6.1-3.1
			c-2-0.7-4.1-1.1-6.1-1.1c-1.7,0-3,0.3-3.9,0.8c-0.9,0.5-1.3,1.3-1.3,2.3c0,1.5,2,2.8,5.9,3.8c0.9,0.3,1.6,0.4,2,0.5
			c5.2,1.5,8.8,3.2,10.8,5.2c2,2,3,4.7,3,8.1c0,4.3-1.7,7.9-5,10.5c-3.3,2.7-7.8,4-13.3,4c-3.7,0-7.2-0.4-10.4-1.3
			C-299.7,263.8-302.7,262.5-305.5,260.8L-305.5,260.8z"/>
	</g>
	<g transform="translate(0 44.289)">
		<path class="st3" d="M282.4,144.7h9.5v22.8c0,2.5-0.2,4.4-0.5,5.7c-0.3,1.3-0.8,2.5-1.6,3.5c-1,1.3-2.2,2.3-3.6,3
			c-1.4,0.7-3,1-4.8,1c-2.2,0-4.2-0.5-5.9-1.4s-3.2-2.3-4.4-4.2l5.8-5.3c0.1,1,0.5,1.8,1,2.4c0.5,0.6,1.2,0.8,2,0.8
			c0.9,0,1.5-0.5,1.9-1.5c0.3-1,0.5-3.5,0.5-7.5V144.7L282.4,144.7z"/>
		<path class="st3" d="M300.6,168.5c1.4,1.6,2.8,2.8,4.2,3.6s2.8,1.2,4.1,1.2c1.3,0,2.3-0.3,3.2-1c0.8-0.7,1.2-1.6,1.2-2.6
			c0-1.2-0.4-2.1-1.1-2.7c-0.7-0.6-2.3-1.3-4.8-2c-3.4-0.9-5.9-2.1-7.3-3.6c-1.4-1.5-2.1-3.5-2.1-6.1c0-3.4,1.1-6.1,3.4-8.2
			c2.2-2.1,5.2-3.2,8.7-3.2c1.9,0,3.8,0.3,5.5,0.8c1.7,0.5,3.4,1.3,4.9,2.4l-3,6.9c-1.1-0.9-2.2-1.6-3.3-2.1
			c-1.1-0.5-2.3-0.7-3.4-0.7c-1.1,0-2.1,0.3-2.8,0.8c-0.7,0.6-1.1,1.3-1.1,2.1c0,0.9,0.3,1.6,0.9,2.1c0.6,0.5,1.9,1,3.7,1.5l0.4,0.1
			c3.9,1.1,6.5,2.2,7.7,3.5c0.8,0.9,1.5,1.9,1.9,3.1c0.4,1.2,0.6,2.5,0.6,4c0,3.7-1.2,6.7-3.7,9c-2.4,2.3-5.7,3.4-9.8,3.4
			c-2.4,0-4.7-0.4-6.7-1.2c-2-0.8-3.9-2.1-5.8-3.9L300.6,168.5L300.6,168.5z"/>
	</g>
</g>
<g>
	<path class="st13" d="M406.9,163.5V22.1c0-9.5,7.7-17.1,17.1-17.1h94.3L589,75.7v102.2H406.9L406.9,163.5L406.9,163.5z"/>
	<g transform="matrix(1 0 0 .87323 -2.0464e-12 160.45)">
		<path class="st14" d="M589,19.9v54.7c0,8.8-7.7,15.9-17.1,15.9H424c-9.5,0-17.1-7.1-17.1-15.9V19.9L589,19.9L589,19.9z"/>
	</g>
	<g transform="matrix(2.1188 0 0 2.1188 -322.9 -1007.5)">
		<path class="st15" d="M404.3,550.1h-33.4c-0.1,0-0.1,0-0.2,0c-0.2,0-0.3-0.1-0.5-0.1c-0.3-0.1-0.5-0.3-0.7-0.5
			c-0.2-0.2-0.3-0.5-0.4-0.7c0-0.1-0.1-0.2-0.1-0.3c0-0.1,0-0.1,0-0.2v-42.2c0-0.1,0-0.1,0-0.2c0-0.2,0.1-0.3,0.1-0.5
			c0.1-0.3,0.3-0.5,0.5-0.7c0.2-0.2,0.5-0.3,0.7-0.4c0.1,0,0.2-0.1,0.3-0.1c0.1,0,0.1,0,0.2,0h33.4c0.1,0,0.1,0,0.2,0
			c0.1,0,0.1,0,0.2,0c0.1,0,0.2,0.1,0.3,0.1c0.2,0.1,0.4,0.2,0.6,0.4c0.2,0.2,0.4,0.4,0.5,0.7c0.1,0.2,0.1,0.3,0.1,0.5
			c0,0.1,0,0.1,0,0.2v42.2c0,0.1,0,0.1,0,0.2c0,0.2-0.1,0.3-0.1,0.5c-0.1,0.3-0.3,0.5-0.5,0.7c-0.2,0.2-0.5,0.3-0.7,0.4
			c-0.1,0-0.2,0.1-0.3,0.1C404.4,550.1,404.3,550.1,404.3,550.1L404.3,550.1z M402.5,508h-29.7v38.5h29.7V508z M399.1,539.2v2.5h-24
			v-2.5H399.1L399.1,539.2z M375.1,533.9h24v2.5h-24V533.9z M375.1,528.6h24v2.5h-24V528.6z M375.1,523.3h24v2.5h-24V523.3z
			 M387.6,512.8h11.6v7.8h-11.6V512.8z M375.1,518h9.6v2.5h-9.6V518z M375.1,512.8h9.6v2.5h-9.6V512.8z"/>
	</g>
	<g transform="translate(3.2597 -1.5916e-12)">
		
			<linearGradient id="SVGID_5_" gradientUnits="userSpaceOnUse" x1="291.1947" y1="660.5185" x2="292.1947" y2="660.5185" gradientTransform="matrix(63.0654 62.0459 62.0459 -63.0654 -58809.6172 23646.3418)">
			<stop  offset="0" style="stop-color:#212121;stop-opacity:0.6157"/>
			<stop  offset="1" style="stop-color:#4D4D4D;stop-opacity:0"/>
		</linearGradient>
		<path class="st16" d="M515.1,5L515.1,5l70.7,70.7v59.1c-0.5,0.3-0.9,0.2-1.3-0.1c-3.3-3.3-66.3-61.9-66.3-66.7
			C518.2,47.2,515.1,5.5,515.1,5L515.1,5z"/>
	</g>
	<g transform="translate(3.2597 -1.5348e-12)">
		<path class="st14" d="M515.1,5L515.1,5l70.7,70.7h-52.9c-4.7,0-9.3-1.9-12.6-5.2c-3.3-3.3-5.2-7.9-5.2-12.6L515.1,5L515.1,5z"/>
	</g>
	
		<image style="overflow:visible;" width="597" height="196" xlink:href="A8F03FC4.png"  transform="matrix(0.24 0 0 0.24 427.6927 185.1651)">
	</image>
</g>
</svg>
